<svg width="198" height="36" viewBox="0 0 198 36" fill="none" xmlns="http://www.w3.org/2000/svg">
<path d="M46.0471 2.83841C46.0471 2.5235 46.0246 2.26482 45.9796 2.06237C45.9346 1.85993 45.8558 1.70247 45.7433 1.59C45.6195 1.46629 45.445 1.38194 45.2199 1.33695C45.0061 1.29196 44.7247 1.26947 44.3759 1.26947V0.847709C45.0849 0.858956 45.8783 0.864579 46.7562 0.864579C47.6453 0.864579 48.495 0.858956 49.3053 0.847709C50.397 0.847709 51.3705 1.02204 52.2259 1.37069C53.0925 1.71934 53.8184 2.18609 54.4036 2.77093C55.0001 3.35577 55.4503 4.02496 55.7542 4.7785C56.0693 5.53204 56.2269 6.3137 56.2269 7.12348C56.2269 7.92201 56.0805 8.70367 55.7879 9.46846C55.4953 10.222 55.0564 10.8912 54.4711 11.476C53.8747 12.0721 53.1319 12.5501 52.2428 12.91C51.3536 13.2587 50.307 13.433 49.1027 13.433C48.7651 13.433 48.3937 13.433 47.9886 13.433C47.5834 13.4217 47.167 13.4161 46.7393 13.4161C46.3116 13.4161 45.8896 13.4217 45.4732 13.433C45.068 13.433 44.7022 13.433 44.3759 13.433V12.9775C44.7247 12.9775 45.0061 12.9606 45.2199 12.9269C45.445 12.8819 45.6195 12.7975 45.7433 12.6738C45.8558 12.5501 45.9346 12.3814 45.9796 12.1677C46.0246 11.9428 46.0471 11.656 46.0471 11.3073V2.83841ZM47.1782 11.3242C47.1782 11.6729 47.2064 11.954 47.2626 12.1677C47.3189 12.3702 47.4258 12.5276 47.5834 12.6401C47.741 12.7526 47.966 12.8257 48.2587 12.8594C48.5513 12.8931 48.9283 12.91 49.3897 12.91C50.3689 12.91 51.213 12.7526 51.922 12.4376C52.631 12.1227 53.2106 11.701 53.6608 11.1724C54.1223 10.6438 54.4599 10.0252 54.6737 9.31663C54.8876 8.60807 54.9945 7.86578 54.9945 7.08974C54.9945 6.20124 54.8538 5.40833 54.5724 4.71102C54.2911 4.00247 53.8915 3.40076 53.3738 2.90589C52.8449 2.42228 52.2034 2.05113 51.4493 1.79245C50.7065 1.52252 49.8624 1.38756 48.917 1.38756C48.7145 1.38756 48.5231 1.39318 48.3431 1.40443C48.1743 1.40443 48.0167 1.41005 47.8704 1.4213C47.7128 1.43255 47.5778 1.4438 47.4652 1.45504C47.3527 1.45504 47.257 1.45504 47.1782 1.45504V11.3242Z" fill="white"/>
<path d="M67.5714 12.3702C67.6952 12.5389 67.8471 12.6682 68.0272 12.7582C68.2073 12.8482 68.3873 12.91 68.5674 12.9438C68.7587 12.9887 68.9332 13.0112 69.0908 13.0112C69.2596 13.0112 69.3946 13.0112 69.4959 13.0112V13.4161C69.3384 13.4161 69.147 13.4161 68.9219 13.4161C68.6968 13.4049 68.4661 13.3993 68.2298 13.3993C67.9934 13.3993 67.7627 13.4049 67.5376 13.4161C67.3125 13.4161 67.1268 13.4161 66.9805 13.4161L62.1355 6.70172L60.7174 8.06822V11.2061C60.7174 11.9709 60.8187 12.4658 61.0213 12.6907C61.2351 12.9044 61.6234 13.0112 62.1861 13.0112V13.433C61.961 13.433 61.6571 13.433 61.2745 13.433C60.8918 13.4217 60.4923 13.4161 60.0759 13.4161C59.6482 13.4161 59.2374 13.4161 58.8435 13.4161C58.4609 13.4161 58.157 13.4217 57.9319 13.433V13.0112C58.2583 13.0112 58.5284 12.9887 58.7422 12.9438C58.9561 12.8988 59.1249 12.8088 59.2487 12.6738C59.3725 12.5501 59.4569 12.3702 59.5019 12.134C59.5582 11.8978 59.5863 11.5885 59.5863 11.2061V2.93963C59.5863 2.57973 59.5582 2.29294 59.5019 2.07925C59.4569 1.86555 59.3725 1.69685 59.2487 1.57313C59.1249 1.46067 58.9561 1.38756 58.7422 1.35382C58.5284 1.30883 58.2583 1.28071 57.9319 1.26947V0.830839C58.1457 0.842086 58.444 0.853333 58.8266 0.864579C59.2205 0.864579 59.6257 0.864579 60.0421 0.864579C60.4585 0.864579 60.8525 0.864579 61.2239 0.864579C61.6065 0.853333 61.8991 0.842086 62.1017 0.830839V1.26947C61.8316 1.28071 61.6065 1.30883 61.4264 1.35382C61.2464 1.38756 61.1057 1.46067 61.0044 1.57313C60.8918 1.69685 60.8131 1.86555 60.768 2.07925C60.7343 2.29294 60.7174 2.57973 60.7174 2.93963V7.44402L65.5962 2.72032C65.6412 2.67533 65.7088 2.60785 65.7988 2.51787C65.8888 2.4279 65.9733 2.3323 66.052 2.23108C66.1421 2.1411 66.2152 2.0455 66.2715 1.94428C66.339 1.84306 66.3728 1.75871 66.3728 1.69123C66.3728 1.51128 66.2715 1.39881 66.0689 1.35382C65.8663 1.29759 65.63 1.26947 65.3599 1.26947V0.830839C65.5625 0.842086 65.8157 0.853333 66.1196 0.864579C66.4347 0.875826 66.7611 0.88145 67.0987 0.88145C67.4251 0.88145 67.7402 0.88145 68.0441 0.88145C68.348 0.88145 68.5956 0.870203 68.7869 0.847709V1.26947C68.5843 1.26947 68.3873 1.29759 68.196 1.35382C68.0159 1.39881 67.8134 1.49441 67.5883 1.64062C67.3632 1.77558 67.0987 1.9724 66.7948 2.23108C66.5022 2.47851 66.1533 2.79905 65.7482 3.19269L62.8276 6.02691L67.5714 12.3702Z" fill="white"/>
<path d="M71.3698 7.42715V6.61737H79.6081V7.42715H71.3698Z" fill="white"/>
<path d="M92.8096 4.06995H92.5058C92.3369 3.05773 91.9543 2.30981 91.3578 1.82619C90.7726 1.33133 89.9228 1.08389 88.8086 1.08389C88.0208 1.08389 87.2893 1.2301 86.614 1.52252C85.95 1.8037 85.376 2.20296 84.8921 2.72032C84.4081 3.23768 84.0311 3.85063 83.761 4.55919C83.4909 5.26774 83.3558 6.0494 83.3558 6.90417C83.3558 7.84891 83.5021 8.70929 83.7948 9.48533C84.0986 10.2501 84.5094 10.9081 85.0271 11.4592C85.5448 12.0103 86.1526 12.4376 86.8504 12.7413C87.5481 13.0337 88.2966 13.1799 89.0956 13.1799C90.1085 13.1799 90.8795 12.8875 91.4084 12.3027C91.9374 11.7066 92.2863 10.9699 92.4551 10.0927H92.8434L92.4045 12.8763C92.2469 12.9775 92.0162 13.0787 91.7123 13.1799C91.4197 13.2812 91.0989 13.3711 90.75 13.4499C90.3899 13.5286 90.0298 13.5905 89.6696 13.6354C89.3207 13.6917 89.0112 13.7198 88.7411 13.7198C87.762 13.7198 86.8672 13.5623 86.0569 13.2474C85.2579 12.9325 84.5657 12.477 83.9805 11.8809C83.3952 11.2961 82.9394 10.5875 82.613 9.75526C82.2979 8.92299 82.1404 7.98949 82.1404 6.95478C82.1404 6.02128 82.3204 5.16652 82.6806 4.39048C83.052 3.6032 83.5472 2.92276 84.1662 2.34917C84.7739 1.78683 85.4717 1.3482 86.2595 1.03328C87.0473 0.71837 87.8576 0.560913 88.6905 0.560913C89.3657 0.560913 90.0354 0.645265 90.6994 0.813968C91.3747 0.982672 92.0218 1.19074 92.6408 1.43817L92.8096 4.06995Z" fill="white"/>
<path d="M107.075 7.07287C107.075 7.90514 106.923 8.72054 106.619 9.51907C106.315 10.3176 105.887 11.0262 105.336 11.6447C104.796 12.2746 104.143 12.7807 103.378 13.1631C102.612 13.5342 101.774 13.7198 100.862 13.7198C100.018 13.7198 99.2191 13.5455 98.465 13.1968C97.7222 12.8482 97.0751 12.3758 96.5236 11.7797C95.9609 11.1836 95.5163 10.4919 95.19 9.70465C94.8748 8.91736 94.7173 8.08509 94.7173 7.20783C94.7173 6.37556 94.8636 5.56579 95.1562 4.7785C95.4601 3.97997 95.8821 3.26579 96.4223 2.63597C96.9738 2.01739 97.6266 1.5169 98.3806 1.13451C99.1459 0.75211 99.99 0.560913 100.913 0.560913C101.746 0.560913 102.534 0.740864 103.276 1.10076C104.03 1.44942 104.689 1.92179 105.251 2.51787C105.803 3.11396 106.242 3.80564 106.568 4.59293C106.906 5.38021 107.075 6.20686 107.075 7.07287ZM105.724 7.57898C105.724 6.89292 105.623 6.16749 105.42 5.40271C105.218 4.63792 104.908 3.93498 104.492 3.29391C104.087 2.65284 103.563 2.12423 102.922 1.7081C102.292 1.29196 101.549 1.08389 100.693 1.08389C99.9956 1.08389 99.3597 1.22448 98.7858 1.50565C98.223 1.78683 97.7335 2.17484 97.3171 2.66971C96.9119 3.16457 96.5968 3.75503 96.3717 4.44109C96.1466 5.12716 96.034 5.87507 96.034 6.68485C96.034 7.38216 96.1353 8.11321 96.3379 8.878C96.5405 9.64279 96.8444 10.3457 97.2495 10.9868C97.6659 11.6279 98.1893 12.1565 98.8195 12.5726C99.4498 12.9775 100.198 13.1799 101.065 13.1799C101.808 13.1799 102.466 13.045 103.04 12.7751C103.625 12.4939 104.115 12.1059 104.509 11.611C104.903 11.1161 105.201 10.5257 105.403 9.83961C105.617 9.15355 105.724 8.4 105.724 7.57898Z" fill="white"/>
<path d="M120.749 13.6186H120.361L111.312 2.56849V11.1892C111.312 11.6054 111.335 11.9372 111.38 12.1846C111.436 12.4208 111.531 12.6007 111.667 12.7244C111.802 12.8482 111.976 12.9269 112.19 12.9606C112.404 12.9944 112.674 13.0112 113 13.0112V13.433C112.708 13.433 112.376 13.433 112.004 13.433C111.644 13.4217 111.278 13.4161 110.907 13.4161C110.524 13.4161 110.153 13.4161 109.793 13.4161C109.433 13.4161 109.112 13.4217 108.83 13.433V13.0112C109.179 13.0112 109.478 12.9944 109.725 12.9606C109.973 12.9156 110.17 12.8313 110.316 12.7076C110.474 12.5839 110.586 12.4039 110.654 12.1677C110.721 11.9315 110.755 11.611 110.755 11.2061V2.99024C110.755 2.32668 110.575 1.8768 110.215 1.64062C109.855 1.39318 109.292 1.26947 108.527 1.26947V0.847709C108.662 0.870203 108.847 0.88145 109.084 0.88145C109.32 0.88145 109.568 0.88145 109.826 0.88145C110.085 0.88145 110.327 0.88145 110.552 0.88145C110.789 0.870203 110.969 0.858956 111.093 0.847709L120.192 11.7122V2.97337C120.192 2.62472 120.164 2.34355 120.107 2.12986C120.062 1.90492 119.978 1.73059 119.854 1.60688C119.73 1.48316 119.556 1.39881 119.331 1.35382C119.106 1.30883 118.819 1.28071 118.47 1.26947V0.830839C118.684 0.842086 118.976 0.853333 119.348 0.864579C119.719 0.864579 120.096 0.864579 120.479 0.864579C120.873 0.864579 121.25 0.864579 121.61 0.864579C121.97 0.853333 122.251 0.842086 122.454 0.830839V1.26947C122.083 1.26947 121.784 1.29196 121.559 1.33695C121.345 1.37069 121.177 1.44942 121.053 1.57313C120.929 1.69685 120.845 1.87118 120.8 2.09612C120.766 2.30981 120.749 2.60223 120.749 2.97337V13.6186Z" fill="white"/>
<path d="M123.669 10.4807H124.142C124.221 10.8181 124.311 11.1499 124.412 11.476C124.514 11.8022 124.654 12.089 124.834 12.3364C125.026 12.5951 125.268 12.8032 125.56 12.9606C125.853 13.1068 126.236 13.1799 126.708 13.1799C127.575 13.1799 128.284 12.9494 128.835 12.4883C129.387 12.0271 129.663 11.4479 129.663 10.7506C129.663 10.3457 129.589 9.99144 129.443 9.68778C129.297 9.37286 129.105 9.09731 128.869 8.86113C128.621 8.62494 128.334 8.41125 128.008 8.22005C127.693 8.02886 127.361 7.83766 127.012 7.64646C126.652 7.46651 126.297 7.26407 125.949 7.03913C125.6 6.81419 125.279 6.56114 124.986 6.27996C124.705 5.98754 124.474 5.66138 124.294 5.30148C124.125 4.93034 124.041 4.5142 124.041 4.05308C124.041 3.45699 124.137 2.93963 124.328 2.501C124.519 2.06237 124.784 1.70247 125.121 1.4213C125.459 1.12888 125.853 0.915191 126.303 0.780228C126.753 0.634018 127.237 0.560913 127.755 0.560913C127.924 0.560913 128.087 0.57216 128.244 0.594654C128.402 0.605901 128.56 0.617148 128.717 0.628395C128.875 0.650888 129.032 0.679006 129.19 0.712746C129.359 0.73524 129.539 0.757734 129.73 0.780228L130.017 3.10834H129.578C129.466 2.43352 129.269 1.92741 128.987 1.59C128.706 1.2526 128.211 1.08389 127.502 1.08389C126.624 1.08389 125.965 1.32008 125.526 1.79245C125.099 2.25357 124.885 2.80467 124.885 3.44574C124.885 3.85063 124.975 4.21616 125.155 4.54232C125.335 4.85723 125.566 5.14403 125.847 5.40271C126.14 5.66138 126.466 5.89195 126.826 6.09439C127.187 6.29683 127.552 6.48803 127.924 6.66798C128.284 6.85918 128.627 7.06162 128.953 7.27531C129.291 7.47776 129.589 7.70832 129.848 7.967C130.107 8.23692 130.315 8.54621 130.473 8.89487C130.63 9.23228 130.709 9.62029 130.709 10.0589C130.709 10.6663 130.585 11.2005 130.338 11.6616C130.101 12.1115 129.792 12.4939 129.409 12.8088C129.015 13.1125 128.571 13.343 128.076 13.5005C127.592 13.6467 127.102 13.7198 126.607 13.7198C126.145 13.7198 125.695 13.6748 125.256 13.5848C124.829 13.4949 124.435 13.3655 124.075 13.1968L123.669 10.4807Z" fill="white"/>
<path d="M143.877 1.26947C143.584 1.26947 143.342 1.29196 143.151 1.33695C142.971 1.37069 142.83 1.4438 142.729 1.55626C142.616 1.66873 142.543 1.83181 142.51 2.0455C142.476 2.2592 142.459 2.54599 142.459 2.90589V9.41785C142.459 10.0477 142.363 10.6269 142.172 11.1555C141.981 11.6841 141.699 12.134 141.328 12.5051C140.956 12.8875 140.495 13.1856 139.943 13.3993C139.392 13.6129 138.756 13.7198 138.036 13.7198C136.652 13.7198 135.554 13.3599 134.744 12.6401C133.945 11.9203 133.534 10.7787 133.512 9.21541V2.9565C133.512 2.5966 133.483 2.30981 133.427 2.09612C133.382 1.87118 133.292 1.70247 133.157 1.59C133.033 1.46629 132.864 1.38756 132.651 1.35382C132.437 1.30883 132.172 1.28071 131.857 1.26947V0.830839C132.071 0.842086 132.375 0.853333 132.769 0.864579C133.174 0.864579 133.602 0.864579 134.052 0.864579C134.491 0.864579 134.913 0.864579 135.318 0.864579C135.734 0.853333 136.061 0.842086 136.297 0.830839V1.26947C135.959 1.28071 135.684 1.30883 135.47 1.35382C135.256 1.38756 135.087 1.46629 134.963 1.59C134.84 1.70247 134.75 1.87118 134.693 2.09612C134.648 2.30981 134.626 2.5966 134.626 2.9565V8.74304C134.626 10.2164 134.935 11.2961 135.554 11.9821C136.184 12.6682 137.169 13.0112 138.509 13.0112C139.004 13.0112 139.46 12.9269 139.876 12.7582C140.292 12.5895 140.653 12.3477 140.956 12.0328C141.26 11.7178 141.497 11.3411 141.665 10.9024C141.834 10.4526 141.919 9.9577 141.919 9.41785V2.9565C141.919 2.58536 141.896 2.29294 141.851 2.07925C141.817 1.85431 141.75 1.6856 141.649 1.57313C141.536 1.46067 141.378 1.38756 141.176 1.35382C140.985 1.32008 140.726 1.29759 140.399 1.28634V0.830839C140.579 0.842086 140.833 0.853333 141.159 0.864579C141.497 0.864579 141.84 0.864579 142.189 0.864579C142.526 0.864579 142.853 0.864579 143.168 0.864579C143.483 0.853333 143.719 0.842086 143.877 0.830839V1.26947Z" fill="white"/>
<path d="M153.651 13.433C153.089 13.4217 152.419 13.4105 151.643 13.3993C150.877 13.388 150.089 13.3824 149.279 13.3824C148.458 13.3824 147.658 13.388 146.882 13.3993C146.105 13.4105 145.436 13.4217 144.873 13.433V13.0281C145.211 13.0281 145.486 13.0056 145.7 12.9606C145.914 12.9044 146.077 12.8088 146.19 12.6738C146.314 12.5389 146.398 12.3533 146.443 12.1171C146.488 11.8697 146.511 11.5491 146.511 11.1555V2.92276C146.511 2.56286 146.482 2.27607 146.426 2.06237C146.381 1.83744 146.297 1.66873 146.173 1.55626C146.049 1.4438 145.88 1.37069 145.666 1.33695C145.453 1.30321 145.188 1.28071 144.873 1.26947V0.830839C145.076 0.853333 145.379 0.870203 145.785 0.88145C146.19 0.88145 146.612 0.88145 147.051 0.88145C147.49 0.88145 147.912 0.88145 148.317 0.88145C148.733 0.870203 149.06 0.853333 149.296 0.830839V1.26947C148.958 1.28071 148.683 1.30321 148.469 1.33695C148.255 1.37069 148.086 1.44942 147.962 1.57313C147.839 1.6856 147.754 1.84868 147.709 2.06237C147.664 2.27607 147.642 2.56286 147.642 2.92276V11.1555C147.642 11.5379 147.681 11.8472 147.76 12.0834C147.839 12.3083 147.99 12.4826 148.216 12.6063C148.441 12.7301 148.761 12.8144 149.178 12.8594C149.605 12.8931 150.157 12.91 150.832 12.91C151.327 12.91 151.744 12.8819 152.081 12.8257C152.419 12.7694 152.706 12.657 152.942 12.4883C153.168 12.3196 153.359 12.0946 153.516 11.8134C153.674 11.521 153.82 11.1442 153.955 10.6831H154.327L153.651 13.433Z" fill="white"/>
<path d="M164.186 3.15895H163.73C163.719 2.83279 163.691 2.56286 163.645 2.34917C163.612 2.13548 163.533 1.96678 163.409 1.84306C163.274 1.7081 163.088 1.61812 162.852 1.57313C162.616 1.5169 162.295 1.48878 161.89 1.48878H159.493V11.1724C159.493 11.5548 159.515 11.8641 159.56 12.1002C159.605 12.3364 159.69 12.522 159.813 12.657C159.937 12.7919 160.106 12.8875 160.32 12.9438C160.534 12.9887 160.809 13.0112 161.147 13.0112V13.433C160.854 13.433 160.511 13.433 160.117 13.433C159.735 13.4217 159.341 13.4161 158.935 13.4161C158.519 13.4161 158.114 13.4161 157.72 13.4161C157.337 13.4161 157.005 13.4217 156.724 13.433V13.0112C157.365 13.0112 157.799 12.8931 158.024 12.657C158.249 12.4208 158.361 11.9259 158.361 11.1724V1.48878H156.302C155.886 1.48878 155.542 1.5169 155.272 1.57313C155.013 1.61812 154.799 1.70247 154.631 1.82619C154.462 1.94991 154.327 2.11861 154.225 2.3323C154.135 2.54599 154.051 2.82154 153.972 3.15895H153.516L153.702 0.830839C154.434 0.864579 155.261 0.887073 156.184 0.89832C157.107 0.909567 158.046 0.915191 159.003 0.915191C159.971 0.915191 160.916 0.909567 161.839 0.89832C162.762 0.887073 163.595 0.864579 164.338 0.830839L164.186 3.15895Z" fill="white"/>
<path d="M166.904 2.90589C166.904 2.54599 166.876 2.2592 166.819 2.0455C166.774 1.83181 166.69 1.66873 166.566 1.55626C166.442 1.4438 166.273 1.37069 166.06 1.33695C165.846 1.30321 165.576 1.28071 165.249 1.26947V0.830839C165.463 0.853333 165.767 0.864579 166.161 0.864579C166.566 0.864579 166.994 0.864579 167.444 0.864579C167.883 0.864579 168.305 0.864579 168.71 0.864579C169.126 0.853333 169.447 0.842086 169.672 0.830839V1.26947C169.346 1.28071 169.076 1.30321 168.862 1.33695C168.648 1.37069 168.479 1.4438 168.356 1.55626C168.232 1.66873 168.147 1.83181 168.102 2.0455C168.057 2.2592 168.035 2.54599 168.035 2.90589V11.1892C168.035 11.9315 168.142 12.4208 168.356 12.657C168.581 12.8931 169.02 13.0112 169.672 13.0112V13.433C169.447 13.433 169.132 13.433 168.727 13.433C168.333 13.4217 167.917 13.4161 167.478 13.4161C167.027 13.4161 166.6 13.4161 166.195 13.4161C165.789 13.4161 165.474 13.4217 165.249 13.433V13.0112C165.902 13.0112 166.341 12.8931 166.566 12.657C166.791 12.4095 166.904 11.9203 166.904 11.1892V2.90589Z" fill="white"/>
<path d="M182.789 13.6186H182.401L173.353 2.56849V11.1892C173.353 11.6054 173.375 11.9372 173.42 12.1846C173.476 12.4208 173.572 12.6007 173.707 12.7244C173.842 12.8482 174.017 12.9269 174.23 12.9606C174.444 12.9944 174.714 13.0112 175.041 13.0112V13.433C174.748 13.433 174.416 13.433 174.045 13.433C173.685 13.4217 173.319 13.4161 172.947 13.4161C172.565 13.4161 172.193 13.4161 171.833 13.4161C171.473 13.4161 171.152 13.4217 170.871 13.433V13.0112C171.22 13.0112 171.518 12.9944 171.766 12.9606C172.013 12.9156 172.21 12.8313 172.356 12.7076C172.514 12.5839 172.627 12.4039 172.694 12.1677C172.762 11.9315 172.795 11.611 172.795 11.2061V2.99024C172.795 2.32668 172.615 1.8768 172.255 1.64062C171.895 1.39318 171.332 1.26947 170.567 1.26947V0.847709C170.702 0.870203 170.888 0.88145 171.124 0.88145C171.36 0.88145 171.608 0.88145 171.867 0.88145C172.126 0.88145 172.368 0.88145 172.593 0.88145C172.829 0.870203 173.009 0.858956 173.133 0.847709L182.232 11.7122V2.97337C182.232 2.62472 182.204 2.34355 182.148 2.12986C182.103 1.90492 182.018 1.73059 181.895 1.60688C181.771 1.48316 181.596 1.39881 181.371 1.35382C181.146 1.30883 180.859 1.28071 180.51 1.26947V0.830839C180.724 0.842086 181.017 0.853333 181.388 0.864579C181.76 0.864579 182.137 0.864579 182.519 0.864579C182.913 0.864579 183.29 0.864579 183.65 0.864579C184.011 0.853333 184.292 0.842086 184.494 0.830839V1.26947C184.123 1.26947 183.825 1.29196 183.6 1.33695C183.386 1.37069 183.217 1.44942 183.093 1.57313C182.969 1.69685 182.885 1.87118 182.84 2.09612C182.806 2.30981 182.789 2.60223 182.789 2.97337V13.6186Z" fill="white"/>
<path d="M197.021 4.03621H196.582C196.357 3.03523 195.923 2.29294 195.282 1.80932C194.652 1.3257 193.785 1.08389 192.682 1.08389C191.804 1.08389 191.022 1.25822 190.336 1.60688C189.66 1.95553 189.092 2.41103 188.63 2.97337C188.169 3.53572 187.82 4.17679 187.584 4.89659C187.347 5.60515 187.229 6.33057 187.229 7.07287C187.229 7.86015 187.347 8.62494 187.584 9.36724C187.831 10.0983 188.197 10.745 188.681 11.3073C189.154 11.8809 189.733 12.3364 190.42 12.6738C191.118 13.0112 191.917 13.1799 192.817 13.1799C193.639 13.1799 194.269 13.0731 194.708 12.8594C195.158 12.6457 195.451 12.4883 195.586 12.387V9.73839C195.586 9.16479 195.451 8.80489 195.181 8.65868C194.911 8.50123 194.5 8.4225 193.948 8.4225V7.98387C194.241 7.99512 194.567 8.00636 194.927 8.01761C195.288 8.01761 195.648 8.01761 196.008 8.01761C196.379 8.01761 196.734 8.01761 197.071 8.01761C197.42 8.00636 197.73 7.99512 198 7.98387V8.40563C197.617 8.40563 197.302 8.48436 197.054 8.64181C196.818 8.79927 196.7 9.16479 196.7 9.73839V12.0328L196.987 12.3196V12.7413C196.278 13.045 195.552 13.2868 194.809 13.4667C194.066 13.6354 193.329 13.7198 192.598 13.7198C191.619 13.7198 190.724 13.5511 189.914 13.2137C189.103 12.865 188.405 12.3983 187.82 11.8134C187.235 11.2174 186.779 10.5257 186.453 9.73839C186.138 8.93986 185.98 8.09071 185.98 7.19096C185.98 6.24622 186.143 5.36896 186.47 4.55919C186.807 3.74941 187.269 3.0521 187.854 2.46726C188.428 1.87118 189.103 1.40443 189.88 1.06702C190.656 0.729617 191.489 0.560913 192.378 0.560913C193.144 0.560913 193.864 0.639641 194.539 0.797098C195.226 0.954555 195.946 1.17387 196.7 1.45504L197.021 4.03621Z" fill="white"/>
<path fill-rule="evenodd" clip-rule="evenodd" d="M197.477 20.6H44.0552V20.0598H197.477V20.6Z" fill="white"/>
<path d="M44.7927 31.9868V26.3184H45.6436V27.7128C45.6738 27.6146 45.7305 27.4861 45.8137 27.3274C45.9045 27.1611 46.0331 26.9948 46.1994 26.8286C46.3658 26.6623 46.5738 26.5225 46.8234 26.4091C47.0805 26.2882 47.3831 26.2277 47.731 26.2277H47.7877V27.078H47.6856C47.2621 27.078 46.8952 27.1951 46.5852 27.4294C46.2826 27.6562 46.0482 27.9547 45.8818 28.325C45.723 28.6878 45.6436 29.077 45.6436 29.4927V31.9868H44.7927Z" fill="#E8E9EF"/>
<path d="M51.3048 32.0775C50.7301 32.0775 50.2271 31.949 49.796 31.6921C49.3649 31.4276 49.0284 31.0723 48.7864 30.6264C48.5519 30.1805 48.4347 29.6892 48.4347 29.1526C48.4347 28.6084 48.5481 28.1172 48.775 27.6788C49.0019 27.2329 49.3271 26.8815 49.7506 26.6245C50.1742 26.36 50.6733 26.2277 51.2481 26.2277C51.8305 26.2277 52.3296 26.36 52.7456 26.6245C53.1691 26.8815 53.4943 27.2329 53.7212 27.6788C53.9481 28.1172 54.0616 28.6084 54.0616 29.1526V29.4927H49.3082C49.3536 29.8253 49.4595 30.1314 49.6259 30.411C49.7998 30.6831 50.0305 30.9023 50.3179 31.0686C50.6053 31.2273 50.938 31.3066 51.3162 31.3066C51.717 31.3066 52.0536 31.2197 52.3259 31.0459C52.5981 30.8645 52.8099 30.634 52.9612 30.3543H53.8914C53.6948 30.8607 53.3809 31.2764 52.9498 31.6014C52.5263 31.9188 51.978 32.0775 51.3048 32.0775ZM49.3196 28.6991H53.1767C53.1011 28.2154 52.8969 27.8111 52.5641 27.4861C52.2313 27.1611 51.7927 26.9986 51.2481 26.9986C50.7036 26.9986 50.2649 27.1611 49.9322 27.4861C49.6069 27.8111 49.4027 28.2154 49.3196 28.6991Z" fill="#E8E9EF"/>
<path d="M57.3928 32.0775C56.8709 32.0775 56.4285 31.9906 56.0655 31.8168C55.71 31.643 55.4377 31.4162 55.2487 31.1366C55.0596 30.8494 54.9537 30.5395 54.931 30.2069H55.8159C55.8386 30.3959 55.9029 30.5811 56.0088 30.7625C56.1222 30.9363 56.2924 31.0799 56.5193 31.1933C56.7462 31.2991 57.0411 31.352 57.4041 31.352C57.5176 31.352 57.6575 31.3406 57.8239 31.318C57.9903 31.2953 58.1491 31.2537 58.3004 31.1933C58.4592 31.1328 58.5915 31.0421 58.6974 30.9212C58.8033 30.8002 58.8562 30.6453 58.8562 30.4564C58.8562 30.2221 58.7655 30.0407 58.584 29.9122C58.4025 29.7837 58.168 29.6855 57.8806 29.6174C57.5932 29.5419 57.2869 29.4701 56.9617 29.402C56.6441 29.334 56.3415 29.2471 56.0541 29.1413C55.7667 29.0279 55.5323 28.873 55.3508 28.6765C55.1693 28.4724 55.0785 28.1965 55.0785 27.8489C55.0785 27.3349 55.2638 26.9381 55.6344 26.6585C56.0125 26.3713 56.5684 26.2277 57.302 26.2277C57.8012 26.2277 58.2058 26.3071 58.5159 26.4658C58.8335 26.6169 59.0718 26.8134 59.2306 27.0553C59.397 27.2972 59.4953 27.5579 59.5256 27.8375H58.6634C58.6331 27.5957 58.5121 27.3878 58.3004 27.214C58.0962 27.0402 57.7558 26.9533 57.2793 26.9533C56.3793 26.9533 55.9293 27.2254 55.9293 27.7695C55.9293 27.9963 56.0201 28.1701 56.2016 28.291C56.3831 28.4119 56.6176 28.5102 56.905 28.5858C57.1924 28.6538 57.4949 28.7218 57.8125 28.7898C58.1377 28.8503 58.4441 28.9372 58.7314 29.0506C59.0188 29.164 59.2533 29.3265 59.4348 29.5381C59.6163 29.7421 59.7071 30.0218 59.7071 30.377C59.7071 30.9287 59.4953 31.352 59.0718 31.6467C58.6558 31.9339 58.0962 32.0775 57.3928 32.0775Z" fill="#E8E9EF"/>
<path d="M63.4896 32.0775C62.9148 32.0775 62.4156 31.949 61.9921 31.6921C61.5686 31.4276 61.2434 31.0723 61.0165 30.6264C60.7896 30.1805 60.6762 29.6892 60.6762 29.1526C60.6762 28.6084 60.7896 28.1172 61.0165 27.6788C61.2434 27.2329 61.5686 26.8815 61.9921 26.6245C62.4156 26.36 62.9148 26.2277 63.4896 26.2277C64.0719 26.2277 64.5711 26.36 64.9871 26.6245C65.4106 26.8815 65.7358 27.2329 65.9627 27.6788C66.1896 28.1172 66.303 28.6084 66.303 29.1526C66.303 29.6892 66.1896 30.1805 65.9627 30.6264C65.7358 31.0723 65.4106 31.4276 64.9871 31.6921C64.5711 31.949 64.0719 32.0775 63.4896 32.0775ZM63.4896 31.3066C63.9131 31.3066 64.2686 31.2084 64.556 31.0119C64.8509 30.8154 65.0741 30.5546 65.2253 30.2296C65.3766 29.8971 65.4522 29.5381 65.4522 29.1526C65.4522 28.7596 65.3766 28.4006 65.2253 28.0756C65.0741 27.7506 64.8509 27.4899 64.556 27.2934C64.2686 27.0969 63.9131 26.9986 63.4896 26.9986C63.0736 26.9986 62.7182 27.0969 62.4232 27.2934C62.1283 27.4899 61.9051 27.7506 61.7539 28.0756C61.6026 28.4006 61.527 28.7596 61.527 29.1526C61.527 29.5381 61.6026 29.8971 61.7539 30.2296C61.9051 30.5546 62.1283 30.8154 62.4232 31.0119C62.7182 31.2084 63.0736 31.3066 63.4896 31.3066Z" fill="#E8E9EF"/>
<path d="M69.8704 32.0775C69.4847 32.0775 69.1178 31.9868 68.7699 31.8054C68.4221 31.6165 68.1384 31.3406 67.9191 30.9779C67.7073 30.6075 67.6015 30.154 67.6015 29.6174V26.3184H68.4523V29.5948C68.4523 30.1087 68.5998 30.5244 68.8947 30.8418C69.1973 31.1517 69.5792 31.3066 70.0405 31.3066C70.3582 31.3066 70.6456 31.2348 70.9027 31.0912C71.1599 30.9401 71.3641 30.736 71.5153 30.479C71.6742 30.2221 71.7536 29.9235 71.7536 29.5834V26.3184H72.6044V31.9868H71.7536V31.1026C71.5494 31.3746 71.2998 31.6052 71.0048 31.7941C70.7099 31.9831 70.3317 32.0775 69.8704 32.0775Z" fill="#E8E9EF"/>
<path d="M74.3107 31.9868V26.3184H75.1615V27.7128C75.1918 27.6146 75.2485 27.4861 75.3317 27.3274C75.4225 27.1611 75.551 26.9948 75.7174 26.8286C75.8838 26.6623 76.0918 26.5225 76.3414 26.4091C76.5985 26.2882 76.901 26.2277 77.2489 26.2277H77.3057V27.078H77.2036C76.78 27.078 76.4132 27.1951 76.1031 27.4294C75.8006 27.6562 75.5662 27.9547 75.3998 28.325C75.2409 28.6878 75.1615 29.077 75.1615 29.4927V31.9868H74.3107Z" fill="#E8E9EF"/>
<path d="M80.7434 32.0775C80.1762 32.0775 79.6846 31.949 79.2686 31.6921C78.8526 31.4276 78.5274 31.0723 78.293 30.6264C78.0661 30.1805 77.9526 29.6892 77.9526 29.1526C77.9526 28.6084 78.0661 28.1172 78.293 27.6788C78.5274 27.2329 78.8526 26.8815 79.2686 26.6245C79.6846 26.36 80.1762 26.2277 80.7434 26.2277C81.4165 26.2277 81.9875 26.4015 82.4564 26.7492C82.9329 27.0969 83.2543 27.5466 83.4207 28.0983H82.5018C82.3732 27.7733 82.1653 27.5088 81.8779 27.3047C81.598 27.1006 81.2577 26.9986 80.8569 26.9986C80.4409 26.9986 80.0779 27.0969 79.7678 27.2934C79.4577 27.4899 79.2195 27.7506 79.0531 28.0756C78.8867 28.4006 78.8035 28.7596 78.8035 29.1526C78.8035 29.5381 78.8867 29.8971 79.0531 30.2296C79.2195 30.5546 79.4577 30.8154 79.7678 31.0119C80.0779 31.2084 80.4409 31.3066 80.8569 31.3066C81.2577 31.3066 81.598 31.2046 81.8779 31.0005C82.1653 30.7965 82.3732 30.5319 82.5018 30.2069H83.4207C83.2543 30.7587 82.9329 31.2084 82.4564 31.556C81.9875 31.9037 81.4165 32.0775 80.7434 32.0775Z" fill="#E8E9EF"/>
<path d="M87.2205 32.0775C86.6457 32.0775 86.1428 31.949 85.7117 31.6921C85.2806 31.4276 84.9441 31.0723 84.702 30.6264C84.4676 30.1805 84.3504 29.6892 84.3504 29.1526C84.3504 28.6084 84.4638 28.1172 84.6907 27.6788C84.9176 27.2329 85.2428 26.8815 85.6663 26.6245C86.0899 26.36 86.589 26.2277 87.1638 26.2277C87.7462 26.2277 88.2453 26.36 88.6613 26.6245C89.0848 26.8815 89.41 27.2329 89.6369 27.6788C89.8638 28.1172 89.9772 28.6084 89.9772 29.1526V29.4927H85.2239C85.2693 29.8253 85.3751 30.1314 85.5415 30.411C85.7155 30.6831 85.9462 30.9023 86.2335 31.0686C86.5209 31.2273 86.8537 31.3066 87.2319 31.3066C87.6327 31.3066 87.9693 31.2197 88.2415 31.0459C88.5138 30.8645 88.7256 30.634 88.8768 30.3543H89.8071C89.6104 30.8607 89.2966 31.2764 88.8655 31.6014C88.442 31.9188 87.8936 32.0775 87.2205 32.0775ZM85.2352 28.6991H89.0924C89.0167 28.2154 88.8125 27.8111 88.4798 27.4861C88.147 27.1611 87.7083 26.9986 87.1638 26.9986C86.6193 26.9986 86.1806 27.1611 85.8478 27.4861C85.5226 27.8111 85.3184 28.2154 85.2352 28.6991Z" fill="#E8E9EF"/>
<path d="M93.3085 32.0775C92.7866 32.0775 92.3442 31.9906 91.9812 31.8168C91.6257 31.643 91.3534 31.4162 91.1643 31.1366C90.9753 30.8494 90.8694 30.5395 90.8467 30.2069H91.7316C91.7543 30.3959 91.8185 30.5811 91.9244 30.7625C92.0379 30.9363 92.208 31.0799 92.4349 31.1933C92.6618 31.2991 92.9568 31.352 93.3198 31.352C93.4333 31.352 93.5732 31.3406 93.7396 31.318C93.9059 31.2953 94.0648 31.2537 94.216 31.1933C94.3749 31.1328 94.5072 31.0421 94.6131 30.9212C94.719 30.8002 94.7719 30.6453 94.7719 30.4564C94.7719 30.2221 94.6812 30.0407 94.4996 29.9122C94.3181 29.7837 94.0837 29.6855 93.7963 29.6174C93.5089 29.5419 93.2026 29.4701 92.8774 29.402C92.5597 29.334 92.2572 29.2471 91.9698 29.1413C91.6824 29.0279 91.448 28.873 91.2664 28.6765C91.0849 28.4724 90.9942 28.1965 90.9942 27.8489C90.9942 27.3349 91.1795 26.9381 91.5501 26.6585C91.9282 26.3713 92.4841 26.2277 93.2177 26.2277C93.7169 26.2277 94.1215 26.3071 94.4316 26.4658C94.7492 26.6169 94.9875 26.8134 95.1463 27.0553C95.3127 27.2972 95.411 27.5579 95.4412 27.8375H94.5791C94.5488 27.5957 94.4278 27.3878 94.216 27.214C94.0118 27.0402 93.6715 26.9533 93.195 26.9533C92.295 26.9533 91.845 27.2254 91.845 27.7695C91.845 27.9963 91.9358 28.1701 92.1173 28.291C92.2988 28.4119 92.5333 28.5102 92.8206 28.5858C93.108 28.6538 93.4106 28.7218 93.7282 28.7898C94.0534 28.8503 94.3597 28.9372 94.6471 29.0506C94.9345 29.164 95.169 29.3265 95.3505 29.5381C95.532 29.7421 95.6228 30.0218 95.6228 30.377C95.6228 30.9287 95.411 31.352 94.9875 31.6467C94.5715 31.9339 94.0118 32.0775 93.3085 32.0775Z" fill="#E8E9EF"/>
<path d="M102.228 34.2315V26.3184H103.078V27.2254C103.29 26.9155 103.562 26.6736 103.895 26.4998C104.236 26.3184 104.64 26.2277 105.109 26.2277C105.661 26.2277 106.141 26.36 106.55 26.6245C106.966 26.8815 107.287 27.2329 107.514 27.6788C107.741 28.1172 107.854 28.6084 107.854 29.1526C107.854 29.6892 107.741 30.1805 107.514 30.6264C107.287 31.0723 106.966 31.4276 106.55 31.6921C106.141 31.949 105.661 32.0775 105.109 32.0775C104.64 32.0775 104.236 31.9868 103.895 31.8054C103.562 31.6165 103.29 31.3709 103.078 31.0686V34.2315H102.228ZM104.996 31.3066C105.419 31.3066 105.778 31.2084 106.073 31.0119C106.376 30.8154 106.607 30.5546 106.765 30.2296C106.924 29.8971 107.004 29.5381 107.004 29.1526C107.004 28.7596 106.924 28.4006 106.765 28.0756C106.607 27.7506 106.376 27.4899 106.073 27.2934C105.778 27.0969 105.419 26.9986 104.996 26.9986C104.58 26.9986 104.224 27.0969 103.929 27.2934C103.634 27.4899 103.411 27.7506 103.26 28.0756C103.109 28.4006 103.033 28.7596 103.033 29.1526C103.033 29.5381 103.109 29.8971 103.26 30.2296C103.411 30.5546 103.634 30.8154 103.929 31.0119C104.224 31.2084 104.58 31.3066 104.996 31.3066Z" fill="#E8E9EF"/>
<path d="M109.201 31.9868V26.3184H110.052V27.7128C110.082 27.6146 110.139 27.4861 110.222 27.3274C110.313 27.1611 110.442 26.9948 110.608 26.8286C110.774 26.6623 110.982 26.5225 111.232 26.4091C111.489 26.2882 111.792 26.2277 112.14 26.2277H112.196V27.078H112.094C111.671 27.078 111.304 27.1951 110.994 27.4294C110.691 27.6562 110.457 27.9547 110.29 28.325C110.132 28.6878 110.052 29.077 110.052 29.4927V31.9868H109.201Z" fill="#E8E9EF"/>
<path d="M115.657 32.0775C115.082 32.0775 114.583 31.949 114.159 31.6921C113.736 31.4276 113.411 31.0723 113.184 30.6264C112.957 30.1805 112.843 29.6892 112.843 29.1526C112.843 28.6084 112.957 28.1172 113.184 27.6788C113.411 27.2329 113.736 26.8815 114.159 26.6245C114.583 26.36 115.082 26.2277 115.657 26.2277C116.239 26.2277 116.738 26.36 117.154 26.6245C117.578 26.8815 117.903 27.2329 118.13 27.6788C118.357 28.1172 118.47 28.6084 118.47 29.1526C118.47 29.6892 118.357 30.1805 118.13 30.6264C117.903 31.0723 117.578 31.4276 117.154 31.6921C116.738 31.949 116.239 32.0775 115.657 32.0775ZM115.657 31.3066C116.08 31.3066 116.436 31.2084 116.723 31.0119C117.018 30.8154 117.241 30.5546 117.392 30.2296C117.544 29.8971 117.619 29.5381 117.619 29.1526C117.619 28.7596 117.544 28.4006 117.392 28.0756C117.241 27.7506 117.018 27.4899 116.723 27.2934C116.436 27.0969 116.08 26.9986 115.657 26.9986C115.241 26.9986 114.885 27.0969 114.59 27.2934C114.295 27.4899 114.072 27.7506 113.921 28.0756C113.77 28.4006 113.694 28.7596 113.694 29.1526C113.694 29.5381 113.77 29.8971 113.921 30.2296C114.072 30.5546 114.295 30.8154 114.59 31.0119C114.885 31.2084 115.241 31.3066 115.657 31.3066Z" fill="#E8E9EF"/>
<path d="M122.264 32.0775C121.697 32.0775 121.206 31.949 120.79 31.6921C120.374 31.4276 120.048 31.0723 119.814 30.6264C119.587 30.1805 119.474 29.6892 119.474 29.1526C119.474 28.6084 119.587 28.1172 119.814 27.6788C120.048 27.2329 120.374 26.8815 120.79 26.6245C121.206 26.36 121.697 26.2277 122.264 26.2277C122.938 26.2277 123.509 26.4015 123.977 26.7492C124.454 27.0969 124.775 27.5466 124.942 28.0983H124.023C123.894 27.7733 123.686 27.5088 123.399 27.3047C123.119 27.1006 122.779 26.9986 122.378 26.9986C121.962 26.9986 121.599 27.0969 121.289 27.2934C120.979 27.4899 120.74 27.7506 120.574 28.0756C120.408 28.4006 120.325 28.7596 120.325 29.1526C120.325 29.5381 120.408 29.8971 120.574 30.2296C120.74 30.5546 120.979 30.8154 121.289 31.0119C121.599 31.2084 121.962 31.3066 122.378 31.3066C122.779 31.3066 123.119 31.2046 123.399 31.0005C123.686 30.7965 123.894 30.5319 124.023 30.2069H124.942C124.775 30.7587 124.454 31.2084 123.977 31.556C123.509 31.9037 122.938 32.0775 122.264 32.0775Z" fill="#E8E9EF"/>
<path d="M128.742 32.0775C128.167 32.0775 127.664 31.949 127.233 31.6921C126.802 31.4276 126.465 31.0723 126.223 30.6264C125.989 30.1805 125.871 29.6892 125.871 29.1526C125.871 28.6084 125.985 28.1172 126.212 27.6788C126.439 27.2329 126.764 26.8815 127.187 26.6245C127.611 26.36 128.11 26.2277 128.685 26.2277C129.267 26.2277 129.766 26.36 130.182 26.6245C130.606 26.8815 130.931 27.2329 131.158 27.6788C131.385 28.1172 131.498 28.6084 131.498 29.1526V29.4927H126.745C126.79 29.8253 126.896 30.1314 127.063 30.411C127.237 30.6831 127.467 30.9023 127.755 31.0686C128.042 31.2273 128.375 31.3066 128.753 31.3066C129.154 31.3066 129.49 31.2197 129.763 31.0459C130.035 30.8645 130.247 30.634 130.398 30.3543H131.328C131.131 30.8607 130.818 31.2764 130.387 31.6014C129.963 31.9188 129.415 32.0775 128.742 32.0775ZM126.756 28.6991H130.613C130.538 28.2154 130.334 27.8111 130.001 27.4861C129.668 27.1611 129.229 26.9986 128.685 26.9986C128.14 26.9986 127.702 27.1611 127.369 27.4861C127.044 27.8111 126.839 28.2154 126.756 28.6991Z" fill="#E8E9EF"/>
<path d="M134.829 32.0775C134.308 32.0775 133.865 31.9906 133.502 31.8168C133.147 31.643 132.874 31.4162 132.685 31.1366C132.496 30.8494 132.39 30.5395 132.368 30.2069H133.253C133.275 30.3959 133.34 30.5811 133.445 30.7625C133.559 30.9363 133.729 31.0799 133.956 31.1933C134.183 31.2991 134.478 31.352 134.841 31.352C134.954 31.352 135.094 31.3406 135.261 31.318C135.427 31.2953 135.586 31.2537 135.737 31.1933C135.896 31.1328 136.028 31.0421 136.134 30.9212C136.24 30.8002 136.293 30.6453 136.293 30.4564C136.293 30.2221 136.202 30.0407 136.021 29.9122C135.839 29.7837 135.605 29.6855 135.317 29.6174C135.03 29.5419 134.724 29.4701 134.398 29.402C134.081 29.334 133.778 29.2471 133.491 29.1413C133.203 29.0279 132.969 28.873 132.787 28.6765C132.606 28.4724 132.515 28.1965 132.515 27.8489C132.515 27.3349 132.701 26.9381 133.071 26.6585C133.449 26.3713 134.005 26.2277 134.739 26.2277C135.238 26.2277 135.643 26.3071 135.953 26.4658C136.27 26.6169 136.508 26.8134 136.667 27.0553C136.834 27.2972 136.932 27.5579 136.962 27.8375H136.1C136.07 27.5957 135.949 27.3878 135.737 27.214C135.533 27.0402 135.193 26.9533 134.716 26.9533C133.816 26.9533 133.366 27.2254 133.366 27.7695C133.366 27.9963 133.457 28.1701 133.638 28.291C133.82 28.4119 134.054 28.5102 134.342 28.5858C134.629 28.6538 134.932 28.7218 135.249 28.7898C135.574 28.8503 135.881 28.9372 136.168 29.0506C136.456 29.164 136.69 29.3265 136.872 29.5381C137.053 29.7421 137.144 30.0218 137.144 30.377C137.144 30.9287 136.932 31.352 136.508 31.6467C136.093 31.9339 135.533 32.0775 134.829 32.0775Z" fill="#E8E9EF"/>
<path d="M140.529 32.0775C140.007 32.0775 139.565 31.9906 139.202 31.8168C138.846 31.643 138.574 31.4162 138.385 31.1366C138.196 30.8494 138.09 30.5395 138.067 30.2069H138.952C138.975 30.3959 139.039 30.5811 139.145 30.7625C139.259 30.9363 139.429 31.0799 139.656 31.1933C139.883 31.2991 140.178 31.352 140.541 31.352C140.654 31.352 140.794 31.3406 140.96 31.318C141.127 31.2953 141.286 31.2537 141.437 31.1933C141.596 31.1328 141.728 31.0421 141.834 30.9212C141.94 30.8002 141.993 30.6453 141.993 30.4564C141.993 30.2221 141.902 30.0407 141.72 29.9122C141.539 29.7837 141.304 29.6855 141.017 29.6174C140.73 29.5419 140.423 29.4701 140.098 29.402C139.781 29.334 139.478 29.2471 139.191 29.1413C138.903 29.0279 138.669 28.873 138.487 28.6765C138.306 28.4724 138.215 28.1965 138.215 27.8489C138.215 27.3349 138.4 26.9381 138.771 26.6585C139.149 26.3713 139.705 26.2277 140.438 26.2277C140.938 26.2277 141.342 26.3071 141.652 26.4658C141.97 26.6169 142.208 26.8134 142.367 27.0553C142.533 27.2972 142.632 27.5579 142.662 27.8375H141.8C141.77 27.5957 141.649 27.3878 141.437 27.214C141.233 27.0402 140.892 26.9533 140.416 26.9533C139.516 26.9533 139.066 27.2254 139.066 27.7695C139.066 27.9963 139.157 28.1701 139.338 28.291C139.52 28.4119 139.754 28.5102 140.041 28.5858C140.329 28.6538 140.631 28.7218 140.949 28.7898C141.274 28.8503 141.58 28.9372 141.868 29.0506C142.155 29.164 142.39 29.3265 142.571 29.5381C142.753 29.7421 142.844 30.0218 142.844 30.377C142.844 30.9287 142.632 31.352 142.208 31.6467C141.792 31.9339 141.233 32.0775 140.529 32.0775Z" fill="#E8E9EF"/>
<path d="M146.683 32.0775C146.108 32.0775 145.605 31.949 145.174 31.6921C144.743 31.4276 144.406 31.0723 144.164 30.6264C143.93 30.1805 143.813 29.6892 143.813 29.1526C143.813 28.6084 143.926 28.1172 144.153 27.6788C144.38 27.2329 144.705 26.8815 145.129 26.6245C145.552 26.36 146.051 26.2277 146.626 26.2277C147.208 26.2277 147.708 26.36 148.124 26.6245C148.547 26.8815 148.872 27.2329 149.099 27.6788C149.326 28.1172 149.439 28.6084 149.439 29.1526V29.4927H144.686C144.732 29.8253 144.837 30.1314 145.004 30.411C145.178 30.6831 145.408 30.9023 145.696 31.0686C145.983 31.2273 146.316 31.3066 146.694 31.3066C147.095 31.3066 147.432 31.2197 147.704 31.0459C147.976 30.8645 148.188 30.634 148.339 30.3543H149.269C149.073 30.8607 148.759 31.2764 148.328 31.6014C147.904 31.9188 147.356 32.0775 146.683 32.0775ZM144.697 28.6991H148.555C148.479 28.2154 148.275 27.8111 147.942 27.4861C147.609 27.1611 147.171 26.9986 146.626 26.9986C146.082 26.9986 145.643 27.1611 145.31 27.4861C144.985 27.8111 144.781 28.2154 144.697 28.6991Z" fill="#E8E9EF"/>
<path d="M152.771 32.0775C152.249 32.0775 151.806 31.9906 151.443 31.8168C151.088 31.643 150.816 31.4162 150.627 31.1366C150.438 30.8494 150.332 30.5395 150.309 30.2069H151.194C151.217 30.3959 151.281 30.5811 151.387 30.7625C151.5 30.9363 151.67 31.0799 151.897 31.1933C152.124 31.2991 152.419 31.352 152.782 31.352C152.896 31.352 153.035 31.3406 153.202 31.318C153.368 31.2953 153.527 31.2537 153.678 31.1933C153.837 31.1328 153.969 31.0421 154.075 30.9212C154.181 30.8002 154.234 30.6453 154.234 30.4564C154.234 30.2221 154.143 30.0407 153.962 29.9122C153.78 29.7837 153.546 29.6855 153.259 29.6174C152.971 29.5419 152.665 29.4701 152.34 29.402C152.022 29.334 151.719 29.2471 151.432 29.1413C151.145 29.0279 150.91 28.873 150.729 28.6765C150.547 28.4724 150.456 28.1965 150.456 27.8489C150.456 27.3349 150.642 26.9381 151.012 26.6585C151.39 26.3713 151.946 26.2277 152.68 26.2277C153.179 26.2277 153.584 26.3071 153.894 26.4658C154.211 26.6169 154.45 26.8134 154.609 27.0553C154.775 27.2972 154.873 27.5579 154.903 27.8375H154.041C154.011 27.5957 153.89 27.3878 153.678 27.214C153.474 27.0402 153.134 26.9533 152.657 26.9533C151.757 26.9533 151.307 27.2254 151.307 27.7695C151.307 27.9963 151.398 28.1701 151.58 28.291C151.761 28.4119 151.995 28.5102 152.283 28.5858C152.57 28.6538 152.873 28.7218 153.19 28.7898C153.516 28.8503 153.822 28.9372 154.109 29.0506C154.397 29.164 154.631 29.3265 154.813 29.5381C154.994 29.7421 155.085 30.0218 155.085 30.377C155.085 30.9287 154.873 31.352 154.45 31.6467C154.034 31.9339 153.474 32.0775 152.771 32.0775Z" fill="#E8E9EF"/>
<path d="M164.129 32.0775C163.562 32.0775 163.07 31.949 162.654 31.6921C162.238 31.4276 161.913 31.0723 161.678 30.6264C161.452 30.1805 161.338 29.6892 161.338 29.1526C161.338 28.6084 161.452 28.1172 161.678 27.6788C161.913 27.2329 162.238 26.8815 162.654 26.6245C163.07 26.36 163.562 26.2277 164.129 26.2277C164.802 26.2277 165.373 26.4015 165.842 26.7492C166.318 27.0969 166.64 27.5466 166.806 28.0983H165.887C165.759 27.7733 165.551 27.5088 165.263 27.3047C164.984 27.1006 164.643 26.9986 164.242 26.9986C163.826 26.9986 163.463 27.0969 163.153 27.2934C162.843 27.4899 162.605 27.7506 162.439 28.0756C162.272 28.4006 162.189 28.7596 162.189 29.1526C162.189 29.5381 162.272 29.8971 162.439 30.2296C162.605 30.5546 162.843 30.8154 163.153 31.0119C163.463 31.2084 163.826 31.3066 164.242 31.3066C164.643 31.3066 164.984 31.2046 165.263 31.0005C165.551 30.7965 165.759 30.5319 165.887 30.2069H166.806C166.64 30.7587 166.318 31.2084 165.842 31.556C165.373 31.9037 164.802 32.0775 164.129 32.0775Z" fill="#E8E9EF"/>
<path d="M170.3 32.0775C169.914 32.0775 169.547 31.9868 169.199 31.8054C168.851 31.6165 168.568 31.3406 168.348 30.9779C168.137 30.6075 168.031 30.154 168.031 29.6174V26.3184H168.882V29.5948C168.882 30.1087 169.029 30.5244 169.324 30.8418C169.627 31.1517 170.009 31.3066 170.47 31.3066C170.788 31.3066 171.075 31.2348 171.332 31.0912C171.589 30.9401 171.793 30.736 171.945 30.479C172.104 30.2221 172.183 29.9235 172.183 29.5834V26.3184H173.034V31.9868H172.183V31.1026C171.979 31.3746 171.729 31.6052 171.434 31.7941C171.139 31.9831 170.761 32.0775 170.3 32.0775Z" fill="#E8E9EF"/>
<path d="M174.74 31.9868V24.051H175.591V31.9868H174.74Z" fill="#E8E9EF"/>
<path d="M177.906 31.9868V27.0666H176.749V26.3184H177.906V24.2891H178.757V26.3184H180.062V27.0666H178.757V31.9868H177.906Z" fill="#E8E9EF"/>
<path d="M183.433 32.0775C183.047 32.0775 182.68 31.9868 182.332 31.8054C181.984 31.6165 181.701 31.3406 181.482 30.9779C181.27 30.6075 181.164 30.154 181.164 29.6174V26.3184H182.015V29.5948C182.015 30.1087 182.162 30.5244 182.457 30.8418C182.76 31.1517 183.142 31.3066 183.603 31.3066C183.921 31.3066 184.208 31.2348 184.465 31.0912C184.722 30.9401 184.926 30.736 185.078 30.479C185.237 30.2221 185.316 29.9235 185.316 29.5834V26.3184H186.167V31.9868H185.316V31.1026C185.112 31.3746 184.862 31.6052 184.567 31.7941C184.272 31.9831 183.894 32.0775 183.433 32.0775Z" fill="#E8E9EF"/>
<path d="M187.873 31.9868V26.3184H188.724V27.7128C188.754 27.6146 188.811 27.4861 188.894 27.3274C188.985 27.1611 189.113 26.9948 189.28 26.8286C189.446 26.6623 189.654 26.5225 189.904 26.4091C190.161 26.2882 190.463 26.2277 190.811 26.2277H190.868V27.078H190.766C190.342 27.078 189.976 27.1951 189.666 27.4294C189.363 27.6562 189.129 27.9547 188.962 28.325C188.803 28.6878 188.724 29.077 188.724 29.4927V31.9868H187.873Z" fill="#E8E9EF"/>
<path d="M194.385 32.0775C193.81 32.0775 193.308 31.949 192.876 31.6921C192.445 31.4276 192.109 31.0723 191.867 30.6264C191.632 30.1805 191.515 29.6892 191.515 29.1526C191.515 28.6084 191.629 28.1172 191.855 27.6788C192.082 27.2329 192.408 26.8815 192.831 26.6245C193.255 26.36 193.754 26.2277 194.329 26.2277C194.911 26.2277 195.41 26.36 195.826 26.6245C196.25 26.8815 196.575 27.2329 196.802 27.6788C197.029 28.1172 197.142 28.6084 197.142 29.1526V29.4927H192.389C192.434 29.8253 192.54 30.1314 192.706 30.411C192.88 30.6831 193.111 30.9023 193.398 31.0686C193.686 31.2273 194.018 31.3066 194.397 31.3066C194.797 31.3066 195.134 31.2197 195.406 31.0459C195.679 30.8645 195.89 30.634 196.042 30.3543H196.972C196.775 30.8607 196.461 31.2764 196.03 31.6014C195.607 31.9188 195.058 32.0775 194.385 32.0775ZM192.4 28.6991H196.257C196.181 28.2154 195.977 27.8111 195.645 27.4861C195.312 27.1611 194.873 26.9986 194.329 26.9986C193.784 26.9986 193.345 27.1611 193.013 27.4861C192.687 27.8111 192.483 28.2154 192.4 28.6991Z" fill="#E8E9EF"/>
<path d="M97.7325 29.2503C97.7325 28.8792 97.8586 28.5676 98.1106 28.3158C98.3626 28.0639 98.6677 27.938 99.0259 27.938C99.3973 27.938 99.709 28.0639 99.961 28.3158C100.213 28.5676 100.339 28.8792 100.339 29.2503C100.339 29.6082 100.213 29.9131 99.961 30.165C99.709 30.4168 99.3973 30.5428 99.0259 30.5428C98.6677 30.5428 98.3626 30.4168 98.1106 30.165C97.8586 29.9131 97.7325 29.6082 97.7325 29.2503Z" fill="#E8E9EF"/>
<path d="M157.011 29.2503C157.011 28.8792 157.137 28.5676 157.39 28.3158C157.642 28.0639 157.947 27.938 158.305 27.938C158.676 27.938 158.988 28.0639 159.24 28.3158C159.492 28.5676 159.618 28.8792 159.618 29.2503C159.618 29.6082 159.492 29.9131 159.24 30.165C158.988 30.4168 158.676 30.5428 158.305 30.5428C157.947 30.5428 157.642 30.4168 157.39 30.165C157.137 29.9131 157.011 29.6082 157.011 29.2503Z" fill="#E8E9EF"/>
<path d="M16.1692 21.6305L2.10242e-05 30.8753L16.1676 3.0145L16.1692 21.6305Z" fill="#4D8BBE"/>
<path d="M18.6821 21.6305L18.6836 3.01451L34.8513 30.8752L18.6821 21.6305Z" fill="#4D8BBE"/>
<path d="M17.426 23.325L34.2746 33.0909H0.577271L17.426 23.325Z" fill="#4D8BBE"/>
</svg>
