<svg width="43" height="46" viewBox="0 0 43 46" fill="none" xmlns="http://www.w3.org/2000/svg">
<path opacity="0.5" fill-rule="evenodd" clip-rule="evenodd" d="M1.17383 3.52531C1.17383 2.5631 1.95385 1.78308 2.91605 1.78308H40.0835C41.0458 1.78308 41.8258 2.5631 41.8258 3.52531C41.8258 4.48751 41.0458 5.26753 40.0835 5.26753V5.26753C39.7628 5.26753 39.5028 5.52754 39.5028 5.84827V29.078C39.5028 29.3987 39.7628 29.6587 40.0835 29.6587V29.6587C41.0458 29.6587 41.8258 30.4387 41.8258 31.4009C41.8258 32.3631 41.0458 33.1432 40.0835 33.1432H24.5261C23.8169 33.1432 23.242 33.7181 23.242 34.4272V34.4272C23.242 34.8566 23.4566 35.2575 23.8138 35.4957L29.4351 39.2432C30.2357 39.7769 30.4521 40.8586 29.9183 41.6592C29.3846 42.4598 28.3029 42.6762 27.5023 42.1424L26.3319 41.3621C25.0111 40.4816 23.242 41.4284 23.242 43.0158V43.0158C23.242 43.978 22.462 44.758 21.4998 44.758C20.5376 44.758 19.7576 43.978 19.7576 43.0158V43.0158C19.7576 41.4284 17.9885 40.4816 16.6677 41.3621L15.4973 42.1424C14.6967 42.6762 13.615 42.4598 13.0813 41.6592C12.5475 40.8586 12.7639 39.7769 13.5645 39.2432L19.1858 35.4957C19.543 35.2575 19.7576 34.8566 19.7576 34.4272V34.4272C19.7576 33.7181 19.1827 33.1432 18.4735 33.1432H2.91605C1.95385 33.1432 1.17383 32.3631 1.17383 31.4009C1.17383 30.4387 1.95385 29.6587 2.91605 29.6587V29.6587C3.23679 29.6587 3.4968 29.3987 3.4968 29.078V5.84828C3.4968 5.52754 3.23679 5.26753 2.91605 5.26753V5.26753C1.95385 5.26753 1.17383 4.48751 1.17383 3.52531ZM29.8071 13.9326C30.4231 13.1934 30.3232 12.0948 29.5841 11.4788C28.8449 10.8628 27.7463 10.9627 27.1303 11.7019L25.0407 14.2094C23.8629 15.6228 21.6745 15.5667 20.5706 14.0949V14.0949C20.2314 13.6425 19.6937 13.3829 19.1285 13.3986C18.5633 13.4143 18.0409 13.7033 17.7272 14.1738L13.0813 21.1427C12.5475 21.9433 12.7639 23.025 13.5645 23.5587C14.3651 24.0925 15.4468 23.8761 15.9805 23.0755L17.4051 20.9387C18.3108 19.5801 20.2878 19.5252 21.2675 20.8315V20.8315C21.5871 21.2576 22.0841 21.5141 22.6167 21.5278C23.1492 21.5414 23.6587 21.3107 23.9997 20.9015L29.8071 13.9326Z" stroke="#E8E9EF" stroke-width="2" stroke-linecap="round" stroke-linejoin="round"/>
</svg>
